<svg width="28" height="28" viewBox="0 0 28 28" fill="none" xmlns="http://www.w3.org/2000/svg">
<g filter="url(#filter0_d)">
<mask id="mask0" mask-type="alpha" maskUnits="userSpaceOnUse" x="4" y="0" width="20" height="20">
<path fill-rule="evenodd" clip-rule="evenodd" d="M14 19.798C19.5228 19.798 24 15.3661 24 9.89899C24 4.43193 19.5228 0 14 0C8.47715 0 4 4.43193 4 9.89899C4 15.3661 8.47715 19.798 14 19.798Z" fill="white"/>
</mask>
<g mask="url(#mask0)">
<rect x="4" width="40" height="40" fill="#FFB000"/>
<path d="M12.666 9.26465H13.6777C14.1882 9.26009 14.5915 9.12793 14.8877 8.86816C15.1885 8.6084 15.3389 8.23242 15.3389 7.74023C15.3389 7.26628 15.2135 6.89941 14.9629 6.63965C14.7168 6.37533 14.3385 6.24316 13.8281 6.24316C13.3815 6.24316 13.0146 6.37305 12.7275 6.63281C12.4404 6.88802 12.2969 7.22298 12.2969 7.6377H10.6357C10.6357 7.12728 10.7702 6.66243 11.0391 6.24316C11.3125 5.82389 11.6908 5.49805 12.1738 5.26562C12.6615 5.02865 13.2061 4.91016 13.8076 4.91016C14.8011 4.91016 15.5804 5.16081 16.1455 5.66211C16.7152 6.15885 17 6.85156 17 7.74023C17 8.18685 16.8564 8.6084 16.5693 9.00488C16.2868 9.39681 15.9199 9.69303 15.4688 9.89355C16.0156 10.0804 16.4303 10.3743 16.7129 10.7754C17 11.1764 17.1436 11.6549 17.1436 12.2109C17.1436 13.1042 16.8359 13.8151 16.2207 14.3438C15.61 14.8724 14.8057 15.1367 13.8076 15.1367C12.8506 15.1367 12.0667 14.8815 11.4561 14.3711C10.8454 13.8607 10.54 13.1816 10.54 12.334H12.2012C12.2012 12.7715 12.347 13.127 12.6387 13.4004C12.9349 13.6738 13.3314 13.8105 13.8281 13.8105C14.3431 13.8105 14.7487 13.6738 15.0449 13.4004C15.3411 13.127 15.4893 12.7305 15.4893 12.2109C15.4893 11.6868 15.3343 11.2835 15.0244 11.001C14.7145 10.7184 14.2542 10.5771 13.6436 10.5771H12.666V9.26465Z" fill="white"/>
</g>
</g>
<defs>
<filter id="filter0_d" x="0" y="0" width="28" height="27.798" filterUnits="userSpaceOnUse" color-interpolation-filters="sRGB">
<feFlood flood-opacity="0" result="BackgroundImageFix"/>
<feColorMatrix in="SourceAlpha" type="matrix" values="0 0 0 0 0 0 0 0 0 0 0 0 0 0 0 0 0 0 127 0"/>
<feOffset dy="4"/>
<feGaussianBlur stdDeviation="2"/>
<feColorMatrix type="matrix" values="0 0 0 0 0 0 0 0 0 0 0 0 0 0 0 0 0 0 0.25 0"/>
<feBlend mode="normal" in2="BackgroundImageFix" result="effect1_dropShadow"/>
<feBlend mode="normal" in="SourceGraphic" in2="effect1_dropShadow" result="shape"/>
</filter>
</defs>
</svg>
