<svg width="92" height="74" viewBox="0 0 92 74" fill="none" xmlns="http://www.w3.org/2000/svg">
<path d="M54.3635 45.695C54.262 47.1392 54.017 48.4521 53.8677 49.6218C53.7183 50.7915 53.4913 52.8503 53.2344 53.2323C52.8282 53.829 50.6357 56.0848 49.3693 57.4753C48.7838 58.1139 48.3895 59.1224 47.7921 59.6774C46.9677 60.501 45.7012 60.3697 44.6199 60.5606C42.2721 61.0082 39.9602 61.796 37.5526 61.796C35.2234 61.7707 32.9061 61.46 30.6526 60.871C26.8054 59.7908 23.5316 58.2094 19.5828 57.5648V46.8229C23.0357 46.6498 33.5321 46.8707 35.5394 46.8707C37.0867 46.8707 39.7212 47.1631 41.5134 47.2407C43.8552 52.534 35.6111 50.7855 31.7519 51.9134C32.857 53.9185 35.3841 54.2468 37.6363 54.2468H45.6952C46.3464 53.7097 47.1947 53.2203 47.7921 52.7906C48.3895 52.361 49.0944 51.7881 49.7994 51.2331C50.0997 49.901 50.5758 48.6146 51.2152 47.4077C51.275 47.2765 51.3287 47.1511 51.3944 47.0377C52.0635 45.7427 52.9596 45.695 54.3635 45.695Z" fill="#EBA888"/>
<path d="M51.3765 47.0377C51.3168 47.1511 51.257 47.2764 51.1973 47.4077C50.5579 48.6146 50.0818 49.901 49.7814 51.2331C49.0765 51.7881 48.3895 52.2714 47.7742 52.7906C47.1588 53.3098 46.3464 53.7097 45.6952 54.2468H38.3352L38.7056 54.1513C39.5001 53.9902 40.3246 53.8052 41.0952 53.644C42.1825 53.4471 43.4251 53.0473 44.584 52.8981C45.1105 52.5409 45.657 52.2141 46.2209 51.9193C46.8277 51.5463 47.3978 51.1167 47.9235 50.6363C48.1136 49.7338 48.4378 48.8648 48.8853 48.0582C49.1995 47.715 49.5857 47.4455 50.0164 47.2691C50.4472 47.0927 50.9116 47.0137 51.3765 47.0377Z" fill="#EBA888"/>
<g style="mix-blend-mode:multiply" opacity="0.4">
<g style="mix-blend-mode:multiply" opacity="0.4">
<path d="M51.3765 47.0377C51.3168 47.1511 51.257 47.2764 51.1973 47.4077C50.5579 48.6146 50.0818 49.901 49.7814 51.2331C49.0765 51.7881 48.3895 52.2714 47.7742 52.7906C47.1588 53.3098 46.3464 53.7097 45.6952 54.2468H38.3352L38.7056 54.1513C39.5001 53.9902 40.3246 53.8052 41.0952 53.644C42.1825 53.4471 43.4251 53.0473 44.584 52.8981C45.1105 52.5409 45.657 52.2141 46.2209 51.9193C46.8275 51.546 47.3976 51.1164 47.9235 50.6363C48.1133 49.7337 48.4375 48.8647 48.8853 48.0582C49.1995 47.715 49.5857 47.4455 50.0164 47.2691C50.4472 47.0927 50.9116 47.0137 51.3765 47.0377Z" fill="#B0B0B0"/>
</g>
</g>
<path d="M17.9638 45.1579H13.543C12.6489 45.1579 11.9241 45.882 11.9241 46.7752V57.4753C11.9241 58.3685 12.6489 59.0926 13.543 59.0926H17.9638C18.8579 59.0926 19.5828 58.3685 19.5828 57.4753V46.7752C19.5828 45.882 18.8579 45.1579 17.9638 45.1579Z" fill="white"/>
<path d="M6.48779 60.2205H15.4488C15.7266 60.2205 16.0016 60.1658 16.2581 60.0597C16.5147 59.9535 16.7478 59.7979 16.9442 59.6017C17.1406 59.4055 17.2964 59.1727 17.4027 58.9163C17.5089 58.66 17.5636 58.3853 17.5636 58.1079V45.504C17.5636 45.0735 17.3924 44.6606 17.0877 44.3562C16.783 44.0518 16.3697 43.8808 15.9387 43.8808H6.48779V60.2205Z" fill="#F4A148"/>
<g opacity="0.69">
<path opacity="0.69" d="M41.6928 48.6311L39.9006 48.9892C39.4526 48.9892 38.8134 49.1324 38.5027 48.8221C38.3333 48.5569 38.212 48.264 38.1443 47.9568C37.9894 47.6451 37.8538 47.3242 37.738 46.996C38.9328 47.0915 40.277 47.2048 41.3225 47.2526C41.5838 47.6636 41.713 48.1446 41.6928 48.6311Z" fill="#F0E3D6"/>
</g>
<path d="M36.1356 21.5357L34.958 22.7224L57.0877 44.6368L58.2654 43.4501L36.1356 21.5357Z" fill="#608C74"/>
<path d="M67.0225 34.6189L58.1571 43.5645L36.0054 21.6689L44.8708 12.7173L49.5724 17.3602L52.8641 20.6245L55.0506 22.7848H55.0565L56.9085 24.6229L62.5898 30.2326L67.0225 34.6189Z" fill="white"/>
<path d="M47.3921 24.065C48.0445 23.407 48.0507 22.3565 47.406 21.7187C46.7613 21.0809 45.7098 21.0974 45.0574 21.7555C44.4051 22.4136 44.3989 23.4641 45.0436 24.1018C45.6883 24.7396 46.7397 24.7231 47.3921 24.065Z" fill="#608C74"/>
<path d="M58.2157 34.7712C58.8679 34.1129 58.8737 33.0624 58.2288 32.4249C57.5839 31.7873 56.5324 31.8042 55.8803 32.4625C55.2281 33.1208 55.2223 34.1712 55.8672 34.8088C56.5121 35.4463 57.5636 35.4295 58.2157 34.7712Z" fill="#608C74"/>
<path d="M37.5168 21.9016L57.8882 42.0427H58.0913L65.4812 34.5831C65.4858 34.5135 65.4858 34.4437 65.4812 34.3742L45.1217 14.2211C45.0522 14.2144 44.9822 14.2144 44.9126 14.2211L37.5228 21.6927C37.5142 21.762 37.5122 21.832 37.5168 21.9016ZM43.7178 17.1274C44.0461 17.4197 44.4769 17.5699 44.9159 17.5453C45.3549 17.5207 45.7662 17.3232 46.0597 16.9961L62.7272 33.4492C62.5639 33.5958 62.4313 33.7733 62.3369 33.9713C62.2425 34.1693 62.1882 34.384 62.1771 34.603C62.166 34.8221 62.1983 35.0411 62.2722 35.2476C62.3461 35.4542 62.4601 35.6441 62.6077 35.8064L59.2802 39.1484C58.952 38.8569 58.522 38.7065 58.0835 38.73C57.645 38.7535 57.2335 38.9489 56.9384 39.2737L40.2828 22.8087C40.6068 22.5123 40.8001 22.0997 40.8203 21.6612C40.8404 21.2228 40.6858 20.7942 40.3903 20.4694L43.7178 17.1274Z" fill="#608C74"/>
<path d="M54.1784 25.8403C53.687 25.35 53.0611 25.0161 52.3798 24.881C51.6985 24.7459 50.9924 24.8156 50.3507 25.0813C49.7091 25.347 49.1607 25.7968 48.7748 26.3738C48.389 26.9508 48.1831 27.629 48.1831 28.3229C48.1831 29.0168 48.389 29.6951 48.7748 30.272C49.1607 30.849 49.7091 31.2988 50.3507 31.5645C50.9924 31.8302 51.6985 31.8999 52.3798 31.7648C53.0611 31.6297 53.687 31.2959 54.1784 30.8055C54.505 30.4796 54.7641 30.0926 54.9408 29.6666C55.1176 29.2406 55.2086 28.784 55.2086 28.3229C55.2086 27.8618 55.1176 27.4052 54.9408 26.9792C54.7641 26.5532 54.505 26.1662 54.1784 25.8403ZM51.3049 30.2386C51.0917 30.2322 50.8847 30.166 50.7075 30.0476L50.5342 29.9223L50.2535 30.2147L49.8293 29.8029L50.128 29.5045C50.0303 29.378 49.9573 29.2343 49.9129 29.0808C49.8624 28.8952 49.8624 28.6995 49.9129 28.5139C49.9607 28.3192 50.055 28.139 50.1877 27.9887L50.7851 28.5019C50.6593 28.6517 50.5952 28.8438 50.6059 29.039C50.6193 29.1606 50.6766 29.2731 50.7672 29.3553C50.8235 29.4127 50.8917 29.457 50.9672 29.4848C51.0426 29.5127 51.1232 29.5235 51.2033 29.5165C51.2982 29.5038 51.3853 29.4572 51.4483 29.3852C51.5115 29.3067 51.5562 29.2149 51.579 29.1167C51.6017 29.0186 51.602 28.9165 51.5797 28.8182C51.5438 28.6273 51.4901 28.3348 51.4244 27.9469C51.3711 27.694 51.357 27.4343 51.3825 27.1771C51.4144 26.9781 51.5085 26.7943 51.6514 26.6519C51.7656 26.5279 51.9125 26.4386 52.0752 26.3942C52.238 26.3499 52.41 26.3523 52.5714 26.4013C52.7277 26.4463 52.8738 26.5213 53.0015 26.6221L53.2942 26.3297L53.7124 26.7415L53.4257 27.0339C53.5229 27.1548 53.6014 27.2896 53.6586 27.4337C53.7185 27.5916 53.737 27.762 53.7124 27.929C53.6888 28.0952 53.6207 28.2519 53.5153 28.3826L52.9179 27.9111C53.0102 27.7967 53.057 27.6521 53.0493 27.5053C53.033 27.3915 52.9757 27.2875 52.888 27.2129C52.846 27.1649 52.7933 27.1275 52.7341 27.1037C52.675 27.0798 52.611 27.0702 52.5475 27.0756C52.4417 27.0892 52.3443 27.14 52.2727 27.2189C52.2049 27.3013 52.1551 27.397 52.1263 27.4997C52.0975 27.6024 52.0904 27.71 52.1054 27.8156C52.1187 27.9628 52.1447 28.1086 52.1831 28.2513C52.2368 28.4721 52.2667 28.6153 52.2786 28.6869C52.309 28.8987 52.309 29.1137 52.2786 29.3255C52.2692 29.3999 52.2552 29.4736 52.2368 29.5463C52.2044 29.6768 52.1408 29.7976 52.0516 29.8984C51.9605 30.0068 51.846 30.0932 51.7167 30.1511C51.5873 30.209 51.4465 30.2369 51.3049 30.2326V30.2386Z" fill="#608C74"/>
<path d="M78.3732 19.7592H74.1138V33.2881H78.3732V19.7592Z" fill="white"/>
<path d="M74.1137 21.2034V31.1815L62.5898 30.2326L60.3376 30.0536L59.0413 29.9521L58.629 29.9163H58.2407L56.562 29.8268L52.5475 29.6179L49.7696 29.4687C48.7719 29.4389 49.0706 29.409 48.0789 29.409C46.8303 29.409 45.1457 29.224 44.2496 28.2155C44.0566 28.015 43.9102 27.7744 43.8209 27.5109C43.7317 27.2475 43.7016 26.9676 43.733 26.6912C43.7644 26.4148 43.8564 26.1487 44.0025 25.9119C44.1485 25.6751 44.3451 25.4734 44.5781 25.3211L44.6438 25.2674C45.2413 24.8377 46.7049 24.7602 47.9893 24.7602C48.521 24.7602 48.8914 24.7602 49.3932 24.8019H49.9906L56.9563 24.6527H57.6792L57.2132 24.2111L56.2454 22.8505H55.1103L49.5844 17.3661L50.4207 16.4889L50.8568 16.0413C50.9647 15.9484 51.083 15.8683 51.2093 15.8026L51.281 15.7668C51.314 15.7532 51.3459 15.7373 51.3766 15.719C51.438 15.6911 51.5021 15.6691 51.5677 15.6534C51.632 15.6319 51.6979 15.616 51.7649 15.6057H51.9561H52.1054H52.4877L59.8477 15.7966C61.4369 16.0679 62.9901 16.5184 64.4776 17.1394L74.1137 21.2034Z" fill="#F7C4A7"/>
<g style="mix-blend-mode:multiply" opacity="0.24">
<path d="M56.1978 22.7848H55.0508L52.8643 20.6245L54.6923 20.6484L56.1978 22.7848Z" fill="#838F92"/>
</g>
<g style="mix-blend-mode:multiply" opacity="0.4">
<path d="M67.0226 34.6129L58.9098 42.8066L45.0859 28.8361C46.0169 29.2348 47.0249 29.4223 48.0371 29.3852C49.0288 29.3852 48.7301 29.3852 49.7278 29.4448L52.5057 29.5881L56.5202 29.7969L58.1989 29.8864H58.5872L58.9994 29.9163L60.2958 30.0177L62.56 30.2027L67.0226 34.6129Z" fill="#838F92"/>
</g>
<path d="M47.2367 25.1123C47.3459 25.1428 47.4396 25.2131 47.4996 25.3092C47.2854 25.3852 47.0885 25.5029 46.9203 25.6555C46.7521 25.8082 46.616 25.9927 46.5198 26.1984C46.4524 26.5618 46.5236 26.9372 46.7192 27.2508C46.9149 27.5645 47.221 27.7936 47.5772 27.8932C47.5055 28.2871 47.392 28.3647 46.8842 28.3647C46.012 28.3647 44.7455 28.2274 44.417 27.3382C44.371 27.1839 44.3371 27.0263 44.3154 26.8668C44.1959 25.9477 44.9128 25.4286 46.1674 25.2018C46.5163 25.1127 46.8777 25.0825 47.2367 25.1123Z" fill="#F5E3D6"/>
<path d="M86.038 18.6194H77.991V34.4279H86.038V18.6194Z" fill="#B8E8F4"/>
<path d="M86.038 26.6698H77.991V34.4279H86.038V26.6698Z" fill="#9EEBFE"/>
</svg>
