<svg width="99" height="98" viewBox="0 0 99 98" fill="none" xmlns="http://www.w3.org/2000/svg">
<path d="M84.3149 20.2076H18.2324V87.5287H84.3149V20.2076Z" fill="white" stroke="#CAD1D8" stroke-miterlimit="10"/>
<path d="M21.7469 9.95191H81.0083C81.443 9.95191 81.8734 10.0367 82.2749 10.2015C82.6764 10.3663 83.0411 10.6079 83.3482 10.9123C83.6553 11.2168 83.8988 11.5782 84.0647 11.9759C84.2305 12.3736 84.3156 12.7998 84.3149 13.23V22.7899H18.2324V13.426C18.2324 12.9694 18.3234 12.5172 18.5 12.0954C18.6767 11.6736 18.9357 11.2904 19.2621 10.9677C19.5885 10.6451 19.976 10.3893 20.4024 10.215C20.8287 10.0406 21.2856 9.95126 21.7469 9.95191Z" fill="#B8E8F4" stroke="#CAD1D8" stroke-miterlimit="10"/>
<path d="M84.3992 27.9692H18.3167" stroke="#CAD1D8" stroke-width="0.75" stroke-miterlimit="10"/>
<path d="M78.0236 18.0271C77.8333 17.7444 77.7478 17.4051 77.7817 17.067C77.8155 16.7289 77.9667 16.4129 78.2094 16.1726C78.4521 15.9324 78.7713 15.7828 79.1129 15.7492C79.4544 15.7157 79.7971 15.8003 80.0828 15.9887C80.1111 16.0093 80.1362 16.0341 80.157 16.0622C80.3473 16.345 80.4328 16.6842 80.3989 17.0223C80.3651 17.3604 80.2139 17.6765 79.9712 17.9167C79.7285 18.1569 79.4093 18.3065 79.0677 18.3401C78.7262 18.3736 78.3835 18.289 78.0978 18.1006C78.0694 18.08 78.0444 18.0552 78.0236 18.0271Z" fill="#DB9600"/>
<path d="M73.9201 18.0271C73.7298 17.7444 73.6443 17.4051 73.6781 17.067C73.712 16.7289 73.8632 16.4129 74.1058 16.1726C74.3485 15.9324 74.6678 15.7828 75.0093 15.7492C75.3509 15.7157 75.6936 15.8003 75.9793 15.9887C76.0076 16.0093 76.0327 16.0341 76.0535 16.0622C76.2438 16.345 76.3293 16.6842 76.2954 17.0223C76.2615 17.3604 76.1104 17.6765 75.8677 17.9167C75.625 18.1569 75.3058 18.3065 74.9642 18.3401C74.6227 18.3736 74.2799 18.289 73.9943 18.1006C73.9659 18.08 73.9409 18.0552 73.9201 18.0271Z" fill="#70A83B"/>
<path d="M69.8363 18.0271C69.646 17.7444 69.5605 17.4051 69.5944 17.067C69.6283 16.7289 69.7794 16.4129 70.0221 16.1726C70.2648 15.9324 70.5841 15.7828 70.9256 15.7492C71.2672 15.7157 71.6099 15.8003 71.8955 15.9887C71.9239 16.0093 71.9489 16.0341 71.9698 16.0622C72.1601 16.345 72.2455 16.6842 72.2117 17.0223C72.1778 17.3604 72.0267 17.6765 71.784 17.9167C71.5413 18.1569 71.222 18.3065 70.8805 18.3401C70.5389 18.3736 70.1962 18.289 69.9106 18.1006C69.8822 18.08 69.8572 18.0552 69.8363 18.0271Z" fill="#BF0811"/>
<path d="M65.2277 14.8862H23.4942C23.3411 14.8862 23.217 15.0091 23.217 15.1606V18.7278C23.217 18.8793 23.3411 19.0022 23.4942 19.0022H65.2277C65.3808 19.0022 65.5049 18.8793 65.5049 18.7278V15.1606C65.5049 15.0091 65.3808 14.8862 65.2277 14.8862Z" fill="white" stroke="#CAD1D8" stroke-miterlimit="10"/>
<path d="M77.7514 51.5823H25.7913C24.788 51.5823 23.9746 52.3874 23.9746 53.3806V54.6056C23.9746 55.5988 24.788 56.4039 25.7913 56.4039H77.7514C78.7547 56.4039 79.5681 55.5988 79.5681 54.6056V53.3806C79.5681 52.3874 78.7547 51.5823 77.7514 51.5823Z" fill="#E6E8E8"/>
<path d="M31.9786 24.01H21.1827C20.7425 24.01 20.3857 24.3632 20.3857 24.7989V25.6662C20.3857 26.1019 20.7425 26.4551 21.1827 26.4551H31.9786C32.4188 26.4551 32.7756 26.1019 32.7756 25.6662V24.7989C32.7756 24.3632 32.4188 24.01 31.9786 24.01Z" fill="#E6E8E8"/>
<path d="M47.1998 24.01H36.4039C35.9637 24.01 35.6069 24.3632 35.6069 24.7989V25.6662C35.6069 26.1019 35.9637 26.4551 36.4039 26.4551H47.1998C47.64 26.4551 47.9968 26.1019 47.9968 25.6662V24.7989C47.9968 24.3632 47.64 24.01 47.1998 24.01Z" stroke="#E6E8E8" stroke-width="0.5" stroke-miterlimit="10"/>
<path d="M61.6144 24.01H50.8184C50.3783 24.01 50.0215 24.3632 50.0215 24.7989V25.6662C50.0215 26.1019 50.3783 26.4551 50.8184 26.4551H61.6144C62.0545 26.4551 62.4113 26.1019 62.4113 25.6662V24.7989C62.4113 24.3632 62.0545 24.01 61.6144 24.01Z" stroke="#E6E8E8" stroke-width="0.5" stroke-miterlimit="10"/>
<path d="M76.0336 24.01H65.2376C64.7975 24.01 64.4407 24.3632 64.4407 24.7989V25.6662C64.4407 26.1019 64.7975 26.4551 65.2376 26.4551H76.0336C76.4737 26.4551 76.8305 26.1019 76.8305 25.6662V24.7989C76.8305 24.3632 76.4737 24.01 76.0336 24.01Z" stroke="#E6E8E8" stroke-width="0.5" stroke-miterlimit="10"/>
<path d="M78.1969 59.0401H25.7913C24.788 59.0401 23.9746 59.8452 23.9746 60.8384V62.0634C23.9746 63.0566 24.788 63.8617 25.7913 63.8617H78.1969C79.2002 63.8617 80.0136 63.0566 80.0136 62.0634V60.8384C80.0136 59.8452 79.2002 59.0401 78.1969 59.0401Z" fill="#E6E8E8"/>
<path d="M66.4555 71.4273H36.4238C35.4205 71.4273 34.6072 72.2324 34.6072 73.2256V74.4506C34.6072 75.4438 35.4205 76.2489 36.4238 76.2489H66.4555C67.4588 76.2489 68.2721 75.4438 68.2721 74.4506V73.2256C68.2721 72.2324 67.4588 71.4273 66.4555 71.4273Z" fill="#FFB000"/>
<path d="M51.051 42.385C52.2812 42.385 53.2785 41.3978 53.2785 40.18C53.2785 38.9622 52.2812 37.975 51.051 37.975C49.8208 37.975 48.8235 38.9622 48.8235 40.18C48.8235 41.3978 49.8208 42.385 51.051 42.385Z" fill="#E6E8E8"/>
<path d="M47.3979 45.6533C47.3979 44.0461 49.0512 42.7427 51.0906 42.7427C53.13 42.7427 54.7833 44.0461 54.7833 45.6533H47.3979Z" fill="#E6E8E8"/>
<path d="M51.1054 48.4365C54.3423 48.4365 56.9662 45.839 56.9662 42.6349C56.9662 39.4308 54.3423 36.8333 51.1054 36.8333C47.8686 36.8333 45.2446 39.4308 45.2446 42.6349C45.2446 45.839 47.8686 48.4365 51.1054 48.4365Z" stroke="#E6E8E8" stroke-miterlimit="10"/>
<path d="M47.9375 73.6855H46.7051V74.6934H48.1367V75H46.3301V72.1562H48.1172V72.4648H46.7051V73.3789H47.9375V73.6855ZM48.8887 72.8867L48.9004 73.1523C49.0618 72.9492 49.2728 72.8477 49.5332 72.8477C49.9798 72.8477 50.2051 73.0996 50.209 73.6035V75H49.8477V73.6016C49.8464 73.4492 49.8112 73.3366 49.7422 73.2637C49.6745 73.1908 49.5684 73.1543 49.4238 73.1543C49.3066 73.1543 49.2038 73.1855 49.1152 73.248C49.0267 73.3105 48.9577 73.3926 48.9082 73.4941V75H48.5469V72.8867H48.8887ZM51.4512 74.5098L51.9746 72.8867H52.3438L51.5859 75H51.3105L50.5449 72.8867H50.9141L51.4512 74.5098ZM53.084 75H52.7227V72.8867H53.084V75ZM52.6934 72.3262C52.6934 72.2676 52.7109 72.2181 52.7461 72.1777C52.7826 72.1374 52.8359 72.1172 52.9062 72.1172C52.9766 72.1172 53.0299 72.1374 53.0664 72.1777C53.1029 72.2181 53.1211 72.2676 53.1211 72.3262C53.1211 72.3848 53.1029 72.4336 53.0664 72.4727C53.0299 72.5117 52.9766 72.5312 52.9062 72.5312C52.8359 72.5312 52.7826 72.5117 52.7461 72.4727C52.7109 72.4336 52.6934 72.3848 52.6934 72.3262ZM54.9688 75C54.9479 74.9583 54.931 74.8841 54.918 74.7773C54.75 74.9518 54.5495 75.0391 54.3164 75.0391C54.1081 75.0391 53.9368 74.9805 53.8027 74.8633C53.6699 74.7448 53.6035 74.5951 53.6035 74.4141C53.6035 74.194 53.6868 74.0234 53.8535 73.9023C54.0215 73.7799 54.2572 73.7188 54.5605 73.7188H54.9121V73.5527C54.9121 73.4264 54.8743 73.3262 54.7988 73.252C54.7233 73.1764 54.612 73.1387 54.4648 73.1387C54.3359 73.1387 54.2279 73.1712 54.1406 73.2363C54.0534 73.3014 54.0098 73.3802 54.0098 73.4727H53.6465C53.6465 73.3672 53.6836 73.2656 53.7578 73.168C53.8333 73.069 53.9349 72.9909 54.0625 72.9336C54.1914 72.8763 54.3327 72.8477 54.4863 72.8477C54.7298 72.8477 54.9206 72.9089 55.0586 73.0312C55.1966 73.1523 55.2682 73.3197 55.2734 73.5332V74.5059C55.2734 74.6999 55.2982 74.8542 55.3477 74.9688V75H54.9688ZM54.3691 74.7246C54.4824 74.7246 54.5898 74.6953 54.6914 74.6367C54.793 74.5781 54.8665 74.502 54.9121 74.4082V73.9746H54.6289C54.1862 73.9746 53.9648 74.1042 53.9648 74.3633C53.9648 74.4766 54.0026 74.5651 54.0781 74.6289C54.1536 74.6927 54.2507 74.7246 54.3691 74.7246ZM56.8613 73.2109C56.8066 73.2018 56.7474 73.1973 56.6836 73.1973C56.4466 73.1973 56.2858 73.2982 56.2012 73.5V75H55.8398V72.8867H56.1914L56.1973 73.1309C56.3158 72.9421 56.4837 72.8477 56.7012 72.8477C56.7715 72.8477 56.8249 72.8568 56.8613 72.875V73.2109Z" fill="white"/>
</svg>
