<svg width="99" height="98" viewBox="0 0 99 98" fill="none" xmlns="http://www.w3.org/2000/svg">
<path d="M15.6765 27.8418C15.1514 27.8418 14.6478 28.0483 14.2765 28.4159C13.9051 28.7834 13.6965 29.282 13.6965 29.8018V70.3983C13.6965 70.9181 13.9051 71.4167 14.2765 71.7842C14.6478 72.1518 15.1514 72.3583 15.6765 72.3583H82.3332C82.8584 72.3583 83.362 72.1518 83.7333 71.7842C84.1046 71.4167 84.3132 70.9181 84.3132 70.3983V29.8018C84.3132 29.282 84.1046 28.7834 83.7333 28.4159C83.362 28.0483 82.8584 27.8418 82.3332 27.8418H15.6765ZM79.6454 67.9728H18.2357V32.1048H79.6454V67.9728Z" fill="#AAB5BF"/>
<path d="M83.6054 73.206H14.4044C13.9375 73.2042 13.4876 73.3796 13.1471 73.696L6.17754 80.2081C4.73709 81.5507 5.56869 84.2065 7.42989 84.2065H90.5849C92.4461 84.2065 93.2827 81.5458 91.8373 80.2081L84.8627 73.7205C84.5268 73.3943 84.076 73.2098 83.6054 73.206Z" fill="#AAB5BF"/>
<path d="M73.6609 17.689H24.4331V67.8405H73.6609V17.689Z" fill="white" stroke="#CAD1D8" stroke-miterlimit="10"/>
<path d="M25.7053 10.045H72.3887C72.7261 10.045 73.0497 10.1777 73.2883 10.4138C73.5268 10.65 73.6609 10.9703 73.6609 11.3043V19.6H24.4331V11.27C24.4421 10.942 24.5801 10.6304 24.8177 10.4016C25.0553 10.1728 25.3738 10.0449 25.7053 10.045Z" fill="#B8E8F4" stroke="#CAD1D8" stroke-miterlimit="10"/>
<path d="M69.7702 16.3758C70.3525 16.3758 70.8245 15.9085 70.8245 15.3321C70.8245 14.7557 70.3525 14.2884 69.7702 14.2884C69.1879 14.2884 68.7158 14.7557 68.7158 15.3321C68.7158 15.9085 69.1879 16.3758 69.7702 16.3758Z" fill="#DB9600"/>
<path d="M66.7211 16.3758C67.3034 16.3758 67.7754 15.9085 67.7754 15.3321C67.7754 14.7557 67.3034 14.2884 66.7211 14.2884C66.1388 14.2884 65.6667 14.7557 65.6667 15.3321C65.6667 15.9085 66.1388 16.3758 66.7211 16.3758Z" fill="#70A83B"/>
<path d="M63.6718 16.3758C64.2541 16.3758 64.7261 15.9085 64.7261 15.3321C64.7261 14.7557 64.2541 14.2884 63.6718 14.2884C63.0895 14.2884 62.6174 14.7557 62.6174 15.3321C62.6174 15.9085 63.0895 16.3758 63.6718 16.3758Z" fill="#BF0811"/>
<path d="M58.0982 13.72H29.6951C28.8394 13.72 28.1458 14.4067 28.1458 15.2537C28.1458 16.1007 28.8394 16.7874 29.6951 16.7874H58.0982C58.9539 16.7874 59.6476 16.1007 59.6476 15.2537C59.6476 14.4067 58.9539 13.72 58.0982 13.72Z" fill="white" stroke="#CAD1D8" stroke-miterlimit="10"/>
<path d="M70.3346 25.8867H43.3521C42.7835 25.8867 42.3225 26.343 42.3225 26.9059V28.4592C42.3225 29.0221 42.7835 29.4784 43.3521 29.4784H70.3346C70.9032 29.4784 71.3642 29.0221 71.3642 28.4592V26.9059C71.3642 26.343 70.9032 25.8867 70.3346 25.8867Z" fill="#E6E8E8"/>
<path d="M70.3346 32.1783H43.3521C42.7835 32.1783 42.3225 32.6346 42.3225 33.1975V34.7508C42.3225 35.3137 42.7835 35.77 43.3521 35.77H70.3346C70.9032 35.77 71.3642 35.3137 71.3642 34.7508V33.1975C71.3642 32.6346 70.9032 32.1783 70.3346 32.1783Z" fill="#E6E8E8"/>
<path d="M70.8295 41.9783H29.3287C28.76 41.9783 28.2991 42.4346 28.2991 42.9975V44.5508C28.2991 45.1137 28.76 45.57 29.3287 45.57H70.8295C71.3981 45.57 71.8591 45.1137 71.8591 44.5508V42.9975C71.8591 42.4346 71.3981 41.9783 70.8295 41.9783Z" fill="#E6E8E8"/>
<path d="M70.8295 48.5933H29.3287C28.76 48.5933 28.2991 49.0496 28.2991 49.6125V51.1658C28.2991 51.7287 28.76 52.185 29.3287 52.185H70.8295C71.3981 52.185 71.8591 51.7287 71.8591 51.1658V49.6125C71.8591 49.0496 71.3981 48.5933 70.8295 48.5933Z" fill="#E6E8E8"/>
<path d="M70.8295 56.105H29.3287C28.76 56.105 28.2991 56.5613 28.2991 57.1242V58.6775C28.2991 59.2404 28.76 59.6967 29.3287 59.6967H70.8295C71.3981 59.6967 71.8591 59.2404 71.8591 58.6775V57.1242C71.8591 56.5613 71.3981 56.105 70.8295 56.105Z" fill="#E6E8E8"/>
<path d="M33.353 30.8553C34.6543 30.8553 35.7092 29.811 35.7092 28.5229C35.7092 27.2347 34.6543 26.1905 33.353 26.1905C32.0517 26.1905 30.9968 27.2347 30.9968 28.5229C30.9968 29.811 32.0517 30.8553 33.353 30.8553Z" fill="#F4A148"/>
<path d="M29.4922 34.3C29.4922 32.5997 31.2395 31.2228 33.3878 31.2228C35.5361 31.2228 37.2835 32.5997 37.2835 34.3H29.4922Z" fill="#F4A148"/>
<path d="M33.4126 37.24C36.8299 37.24 39.6001 34.4977 39.6001 31.115C39.6001 27.7323 36.8299 24.99 33.4126 24.99C29.9953 24.99 27.2251 27.7323 27.2251 31.115C27.2251 34.4977 29.9953 37.24 33.4126 37.24Z" stroke="#F4A148" stroke-miterlimit="10"/>
</svg>
